<svg height="496pt" viewBox="0 0 496 496" width="496pt" fill="white" xmlns="http://www.w3.org/2000/svg"><g fill="#f0bc5e"><path d="m480 224c0 22.089844-17.910156 40-40 40s-40-17.910156-40-40 17.910156-40 40-40 40 17.910156 40 40zm0 0"/><path d="m440 304c0 22.089844-17.910156 40-40 40s-40-17.910156-40-40 17.910156-40 40-40 40 17.910156 40 40zm0 0"/><path d="m368 256c0 22.089844-17.910156 40-40 40s-40-17.910156-40-40 17.910156-40 40-40 40 17.910156 40 40zm0 0"/><path d="m312 344c0 22.089844-17.910156 40-40 40s-40-17.910156-40-40 17.910156-40 40-40 40 17.910156 40 40zm0 0"/><path d="m288 136h176v32h-176zm0 0"/></g><path d="m456 80h-232v.289062c-8.558594-7.226562-18.0625-13.527343-28.496094-18.617187l-7.015625 14.382813c41.648438 20.296874 67.511719 61.65625 67.511719 107.945312 0 63.464844-49.558594 115.449219-112 119.59375v-159.59375h-16v32h-111.71875c2.789062-43.015625 28-80.824219 67.230469-99.945312l-7.015625-14.382813c-47.183594 23-76.496094 69.871094-76.496094 122.328125 0 33.296875 12.0625 63.792969 32 87.457031v136.542969c0 22.054688 17.945312 40 40 40h96v32h-32v16h256v-16h-32v-32h96c22.054688 0 40-17.945312 40-40v-288c0-22.054688-17.945312-40-40-40zm-328 223.59375c-59.785156-3.96875-107.625-51.816406-111.59375-111.59375h111.59375zm216 176.40625h-160v-32h160zm136-72c0 13.230469-10.769531 24-24 24h-384c-13.230469 0-24-10.769531-24-24v-8h432zm-432-24v-96.496094c23.742188 20.214844 54.441406 32.496094 88 32.496094 74.992188 0 136-61.007812 136-136 0-33.097656-11.6875-63.945312-32.144531-88h216.144531c13.230469 0 24 10.769531 24 24v264zm0 0"/><path d="m160 176h16v16h-16zm0 0"/><path d="m192 176h16v16h-16zm0 0"/><path d="m224 176h16v16h-16zm0 0"/><path d="m440 200c-13.230469 0-24 10.769531-24 24 0 6.839844 2.902344 12.976562 7.511719 17.351562l-19.527344 39.046876c-1.304687-.214844-2.625-.398438-3.984375-.398438-6.089844 0-11.59375 2.351562-15.824219 6.097656l-33.558593-22.378906c.832031-2.429688 1.382812-5 1.382812-7.71875 0-13.230469-10.769531-24-24-24s-24 10.769531-24 24c0 5.558594 1.976562 10.625 5.167969 14.695312l-31.792969 49.960938c-1.734375-.398438-3.519531-.65625-5.375-.65625-13.230469 0-24 10.769531-24 24s10.769531 24 24 24 24-10.769531 24-24c0-5.558594-1.976562-10.625-5.167969-14.695312l31.792969-49.960938c1.734375.398438 3.519531.65625 5.375.65625 4.65625 0 8.960938-1.382812 12.648438-3.6875l35.742187 23.832031c-.207031 1.261719-.390625 2.535157-.390625 3.855469 0 13.230469 10.769531 24 24 24s24-10.769531 24-24c0-6.054688-2.328125-11.535156-6.046875-15.761719l20.214844-40.421875c.617187.046875 1.207031.183594 1.832031.183594 13.230469 0 24-10.769531 24-24s-10.769531-24-24-24zm-168 152c-4.414062 0-8-3.59375-8-8s3.585938-8 8-8 8 3.59375 8 8-3.585938 8-8 8zm56-88c-4.414062 0-8-3.59375-8-8s3.585938-8 8-8 8 3.59375 8 8-3.585938 8-8 8zm72 48c-4.414062 0-8-3.59375-8-8s3.585938-8 8-8 8 3.59375 8 8-3.585938 8-8 8zm40-80c-4.414062 0-8-3.59375-8-8s3.585938-8 8-8 8 3.59375 8 8-3.585938 8-8 8zm0 0"/><path d="m288 128h176v16h-176zm0 0"/><path d="m288 160h176v16h-176zm0 0"/><path d="m160 336h72v16h-72zm0 0"/><path d="m64 336h80v16h-80zm0 0"/><path d="m124 112h4v16h16v-16h4c15.441406 0 28-12.558594 28-28s-12.558594-28-28-28h-24c-6.617188 0-12-5.382812-12-12s5.382812-12 12-12h24c6.617188 0 12 5.382812 12 12v4h16v-4c0-15.441406-12.558594-28-28-28h-4v-16h-16v16h-4c-15.441406 0-28 12.558594-28 28s12.558594 28 28 28h24c6.617188 0 12 5.382812 12 12s-5.382812 12-12 12h-24c-6.617188 0-12-5.382812-12-12v-4h-16v4c0 15.441406 12.558594 28 28 28zm0 0"/></svg>