<?xml version="1.0" encoding="iso-8859-1"?>
<!-- Generator: Adobe Illustrator 22.1.0, SVG Export Plug-In . SVG Version: 6.00 Build 0)  -->
<svg xmlns="http://www.w3.org/2000/svg" xmlns:xlink="http://www.w3.org/1999/xlink" version="1.1" id="Layer_1_1_" x="0px" y="0px" viewBox="0 0 64 64" style="enable-background:new 0 0 64 64;" xml:space="preserve" width="512" height="512">
<linearGradient id="SVGID_1_" gradientUnits="userSpaceOnUse" x1="32" y1="1" x2="32" y2="63" gradientTransform="matrix(1 0 0 -1 0 64)">
	<stop offset="0" style="stop-color:#9F2FFF"/>
	<stop offset="1" style="stop-color:#0BB1D3"/>
</linearGradient>
<path style="fill:url(#SVGID_1_);" d="M58,11H29v0.036c-1.07-0.903-2.258-1.691-3.562-2.327l-0.877,1.798  C29.767,13.044,33,18.214,33,24c0,7.933-6.195,14.431-14,14.949V19h-2v4H3.035c0.349-5.377,3.5-10.103,8.404-12.493l-0.877-1.798  C4.664,11.584,1,17.443,1,24c0,4.162,1.508,7.974,4,10.932V49v1v2c0,2.757,2.243,5,5,5h12v4h-4v2h32v-2h-4v-4h12  c2.757,0,5-2.243,5-5v-2v-1V16C63,13.243,60.757,11,58,11z M17,38.949C9.527,38.453,3.547,32.472,3.051,25H17V38.949z M44,61H24v-4  h20V61z M61,52c0,1.654-1.346,3-3,3H10c-1.654,0-3-1.346-3-3v-1h54V52z M7,49V36.938C9.968,39.465,13.805,41,18,41  c9.374,0,17-7.626,17-17c0-4.137-1.461-7.993-4.018-11H58c1.654,0,3,1.346,3,3v33H7z M21,23h2v2h-2V23z M27,23v2h-2v-2H27z M31,23v2  h-2v-2H31z M56,26.283c-1.654,0-3,1.346-3,3c0,0.807,0.324,1.537,0.844,2.077l-2.48,4.96c-0.12-0.015-0.239-0.037-0.363-0.037  c-0.673,0-1.288,0.23-1.789,0.606L44.9,34.014c0.06-0.235,0.101-0.478,0.101-0.731c0-1.654-1.346-3-3-3s-3,1.346-3,3  c0,0.638,0.203,1.227,0.544,1.714l-3.872,6.085C35.455,41.032,35.232,41,35,41c-1.654,0-3,1.346-3,3s1.346,3,3,3s3-1.346,3-3  c0-0.695-0.247-1.328-0.646-1.837l3.824-6.009c0.263,0.076,0.535,0.129,0.822,0.129c0.673,0,1.288-0.23,1.789-0.606l4.312,2.875  C48.041,38.787,48,39.03,48,39.283c0,1.654,1.346,3,3,3s3-1.346,3-3c0-0.807-0.324-1.537-0.844-2.077l2.48-4.96  c0.121,0.015,0.239,0.037,0.364,0.037c1.654,0,3-1.346,3-3S57.654,26.283,56,26.283z M35,45c-0.552,0-1-0.449-1-1s0.448-1,1-1  s1,0.449,1,1S35.552,45,35,45z M42,34.283c-0.552,0-1-0.449-1-1s0.448-1,1-1s1,0.449,1,1S42.552,34.283,42,34.283z M51,40.283  c-0.552,0-1-0.449-1-1s0.448-1,1-1s1,0.449,1,1S51.552,40.283,51,40.283z M56,30.283c-0.552,0-1-0.449-1-1s0.448-1,1-1s1,0.449,1,1  S56.552,30.283,56,30.283z M37,17h22v2H37V17z M37,21h22v2H37V21z M21,43h9v2h-9V43z M9,43h10v2H9V43z M21,7V6.5  C21,5.673,20.327,5,19.5,5h-3C15.673,5,15,5.673,15,6.5S15.673,8,16.5,8h3c1.93,0,3.5,1.57,3.5,3.5S21.43,15,19.5,15H19v2h-2v-2  h-0.5c-1.93,0-3.5-1.57-3.5-3.5V11h2v0.5c0,0.827,0.673,1.5,1.5,1.5h3c0.827,0,1.5-0.673,1.5-1.5S20.327,10,19.5,10h-3  C14.57,10,13,8.43,13,6.5S14.57,3,16.5,3H17V1h2v2h0.5C21.43,3,23,4.57,23,6.5V7H21z"/>
</svg>
